<svg width="485.20624999999995px" height="122px" xmlns="http://www.w3.org/2000/svg" viewBox="7.396875000000023 14 485.20624999999995 122" style="background: rgb(255, 182, 187);" preserveAspectRatio="xMidYMid"><defs><linearGradient id="editing-sticker-gradient" x1="0.5" y1="0.2" x2="0.5" y2="0.8"><stop offset="0" stop-color="#ffe691"></stop><stop offset="1" stop-color="#95d5ee"></stop></linearGradient><filter id="editing-sticker" x="-100%" y="-100%" width="300%" height="300%"><feMorphology operator="erode" radius="1" in="SourceAlpha" result="alpha-erode"></feMorphology><feConvolveMatrix order="3,3" divisor="1" kernelMatrix="0 1 0 1 1 1 0 1 0" in="alpha-erode" result="alpha-round"></feConvolveMatrix><feMorphology operator="dilate" radius="3.5" in="alpha-round" result="dilate-shadow"></feMorphology><feGaussianBlur in="dilate-shadow" stdDeviation="1.5" result="shadow"></feGaussianBlur><feFlood flood-color="#fff" result="flood-sticker"></feFlood><feComposite operator="in" in="flood-sticker" in2="alpha-round" result="comp-sticker"></feComposite><feMorphology operator="dilate" radius="3" in="comp-sticker" result="morph-sticker"></feMorphology><feConvolveMatrix order="3,3" divisor="1" kernelMatrix="0 1 0 1 1 1 0 1 0" in="morph-sticker" result="sticker"></feConvolveMatrix><feMerge><feMergeNode in="shadow"></feMergeNode><feMergeNode in="sticker"></feMergeNode><feMergeNode in="SourceGraphic"></feMergeNode></feMerge></filter></defs><g filter="url(#editing-sticker)"><g transform="translate(60.04997408390045, 104.47000312805176)"><path d="M7.30-9.15L1.54-9.15L1.54-9.15Q1.15-10.56 1.15-12.26L1.15-12.26L1.15-12.26Q1.15-13.95 2.37-15.23L2.37-15.23L2.37-15.23Q3.58-16.51 5.82-16.51L5.82-16.51L8.58-16.51L9.98-24.77L3.52-24.77L3.52-24.77Q3.14-26.18 3.14-27.90L3.14-27.90L3.14-27.90Q3.14-29.63 4.35-30.88L4.35-30.88L4.35-30.88Q5.57-32.13 7.81-32.13L7.81-32.13L11.20-32.13L12.22-38.34L12.22-38.34Q12.93-42.24 16.45-42.24L16.45-42.24L16.45-42.24Q17.86-42.24 19.71-41.47L19.71-41.47L18.24-32.13L25.34-32.13L26.37-38.34L26.37-38.34Q26.69-40.19 27.78-41.22L27.78-41.22L27.78-41.22Q28.86-42.24 30.46-42.24L30.46-42.24L30.46-42.24Q32.06-42.24 33.79-41.47L33.79-41.47L32.38-32.13L38.46-32.13L38.46-32.13Q38.78-30.66 38.78-28.96L38.78-28.96L38.78-28.96Q38.78-27.26 37.60-26.02L37.60-26.02L37.60-26.02Q36.42-24.77 34.18-24.77L34.18-24.77L31.23-24.77L29.95-16.51L36.42-16.51L36.42-16.51Q36.80-15.04 36.80-13.34L36.80-13.34L36.80-13.34Q36.80-11.65 35.58-10.40L35.58-10.40L35.58-10.40Q34.37-9.15 32.13-9.15L32.13-9.15L28.86-9.15L28.10-3.90L28.10-3.90Q27.84-2.05 26.43-1.02L26.43-1.02L26.43-1.02Q25.02 0 23.33 0L23.33 0L23.33 0Q21.63 0 20.03-0.77L20.03-0.77L21.50-9.15L14.72-9.15L13.95-3.90L13.95-3.90Q13.70-2.05 12.29-1.02L12.29-1.02L12.29-1.02Q10.88 0 9.18 0L9.18 0L9.18 0Q7.49 0 5.89-0.77L5.89-0.77L7.30-9.15ZM17.09-24.77L15.87-16.51L22.72-16.51L24.13-24.77L17.09-24.77ZM52.99 0.83L48.90 0.70L48.90 0.70Q46.91 0.64 44.83 0.64L44.83 0.64L44.83 0.64Q42.75 0.64 40.70 0.90L40.70 0.90L40.70 0.90Q40.45-0.13 40.45-1.34L40.45-1.34L40.45-1.34Q40.45-3.90 41.89-5.44L41.89-5.44L41.89-5.44Q43.33-6.98 45.57-6.98L45.57-6.98L49.02-6.98L54.40-31.17L54.40-31.17Q52.42-29.18 48.32-29.18L48.32-29.18L48.32-29.18Q46.27-29.18 44.67-31.10L44.67-31.10L44.67-31.10Q43.07-32.90 42.82-35.46L42.82-35.46L42.82-35.46Q52.29-37.12 66.43-43.46L66.43-43.46L68.48-41.02L62.27-6.98L63.87-6.98L63.87-6.98Q67.71-6.98 69.70-7.68L69.70-7.68L69.70-7.68Q70.53-6.27 70.53-3.97L70.53-3.97L70.53-3.97Q70.53-1.66 68.83-0.29L68.83-0.29L68.83-0.29Q67.14 1.09 64.32 1.09L64.32 1.09L64.32 1.09Q58.62 1.09 52.99 0.83L52.99 0.83ZM152.32-42.69L152.32-42.69L152.32-42.69Q168-42.69 168-31.62L168-31.62L168-31.62Q168-25.54 164.10-21.89L164.10-21.89L164.10-21.89Q160.26-18.24 153.54-18.24L153.54-18.24L153.54-18.24Q150.40-18.24 147.97-20.03L147.97-20.03L147.97-20.03Q146.82-20.80 146.05-21.82L146.05-21.82L146.05-21.82Q150.72-21.82 153.18-24.67L153.18-24.67L153.18-24.67Q155.65-27.52 155.65-33.09L155.65-33.09L155.65-33.09Q155.65-38.66 150.14-38.66L150.14-38.66L148.61-38.66L148.61-38.66Q148.22-38.66 147.90-38.59L147.90-38.59L140.54 0L126.66 0L134.53-41.92L134.53-41.92Q141.38-42.56 145.34-42.62L145.34-42.62L145.34-42.62Q149.31-42.69 152.32-42.69ZM183.62-3.52L183.62-3.52L183.62-3.52Q181.63 1.28 175.30 1.28L175.30 1.28L175.30 1.28Q172.10 1.28 170.05-0.96L170.05-0.96L170.05-0.96Q168.38-2.82 168.38-4.93L168.38-4.93L168.38-4.93Q168.38-9.73 170.62-20.22L170.62-20.22L175.30-44.80L188.29-46.08L182.08-13.70L182.08-13.70Q180.99-8.96 180.99-7.30L180.99-7.30L180.99-7.30Q180.99-3.65 183.62-3.52ZM191.84-1.92L191.84-1.92L191.84-1.92Q190.34-3.58 189.66-6.21L189.66-6.21L189.66-6.21Q188.99-8.83 188.99-13.12L188.99-13.12L188.99-13.12Q188.99-17.41 190.46-21.31L190.46-21.31L190.46-21.31Q191.94-25.22 194.62-28.03L194.62-28.03L194.62-28.03Q200.13-33.92 209.22-33.92L209.22-33.92L209.22-33.92Q212.48-33.92 214.85-32.83L214.85-32.83L225.79-33.92L221.06-8.96L221.06-8.96Q220.86-8.19 220.86-6.78L220.86-6.78L220.86-6.78Q220.86-5.38 221.73-4.48L221.73-4.48L221.73-4.48Q222.59-3.58 223.87-3.46L223.87-3.46L223.87-3.46Q223.23-1.28 220.90 0L220.90 0L220.90 0Q218.56 1.28 215.94 1.28L215.94 1.28L215.94 1.28Q213.31 1.28 211.55 0.29L211.55 0.29L211.55 0.29Q209.79-0.70 209.28-2.37L209.28-2.37L209.28-2.37Q208.26-0.77 206.08 0.26L206.08 0.26L206.08 0.26Q203.90 1.28 200.99 1.28L200.99 1.28L200.99 1.28Q198.08 1.28 195.71 0.51L195.71 0.51L195.71 0.51Q193.34-0.26 191.84-1.92ZM205.34-27.90L205.34-27.90L205.34-27.90Q204.61-26.75 203.97-24.80L203.97-24.80L203.97-24.80Q203.33-22.85 202.27-17.63L202.27-17.63L202.27-17.63Q201.22-12.42 201.22-8.70L201.22-8.70L201.22-8.70Q201.22-4.99 201.79-3.90L201.79-3.90L201.79-3.90Q202.37-2.82 203.39-2.82L203.39-2.82L203.39-2.82Q205.44-2.82 206.94-4.77L206.94-4.77L206.94-4.77Q208.45-6.72 209.02-10.18L209.02-10.18L212.42-28.93L212.42-28.93Q211.07-30.08 209.50-30.08L209.50-30.08L209.50-30.08Q207.94-30.08 207.01-29.57L207.01-29.57L207.01-29.57Q206.08-29.06 205.34-27.90ZM249.60-7.23L249.60-7.23L249.60-7.23Q246.27-3.78 240.19-3.78L240.19-3.78L240.19-3.78Q232.58-3.78 230.98-9.34L230.98-9.34L230.98-9.34Q230.46-11.01 230.46-12.86L230.46-12.86L230.46-12.86Q230.46-14.72 230.85-16.64L230.85-16.64L233.86-32.64L246.85-33.92L243.33-15.30L243.33-15.30Q243.20-14.46 243.01-13.57L243.01-13.57L243.01-13.57Q242.82-12.67 242.82-11.74L242.82-11.74L242.82-11.74Q242.82-10.82 243.14-10.21L243.14-10.21L243.14-10.21Q243.46-9.60 243.90-9.22L243.90-9.22L243.90-9.22Q244.67-8.70 246.05-8.70L246.05-8.70L246.05-8.70Q247.42-8.70 248.61-10.37L248.61-10.37L248.61-10.37Q249.79-12.03 250.37-14.91L250.37-14.91L253.89-32.64L266.50-33.92L261.70-8.77L261.70-8.77Q259.33 3.52 254.46 8.38L254.46 8.38L254.46 8.38Q251.97 10.88 248.74 11.87L248.74 11.87L248.74 11.87Q245.50 12.86 241.34 12.86L241.34 12.86L241.34 12.86Q234.62 12.86 230.78 10.75L230.78 10.75L230.78 10.75Q226.94 8.64 226.94 5.12L226.94 5.12L226.94 5.12Q226.94 2.50 228.93 0.99L228.93 0.99L228.93 0.99Q230.91-0.51 233.98-0.51L233.98-0.51L233.98-0.51Q236.67-0.51 238.72 0.64L238.72 0.64L238.72 0.64Q239.94 1.34 240.51 2.24L240.51 2.24L240.51 2.24Q239.04 3.52 239.04 5.63L239.04 5.63L239.04 5.63Q239.04 8.45 241.60 8.45L241.60 8.45L241.60 8.45Q245.82 8.45 248.26-1.28L248.26-1.28L248.26-1.28Q248.96-4.16 249.60-7.23ZM294.72-10.82L294.72-10.82L294.72-10.82Q296.32-9.73 296.32-7.33L296.32-7.33L296.32-7.33Q296.32-4.93 295.10-3.39L295.10-3.39L295.10-3.39Q293.89-1.86 291.90-0.83L291.90-0.83L291.90-0.83Q287.81 1.28 283.39 1.28L283.39 1.28L283.39 1.28Q278.98 1.28 276.38 0.32L276.38 0.32L276.38 0.32Q273.79-0.64 272.06-2.43L272.06-2.43L272.06-2.43Q268.67-5.82 268.67-12.03L268.67-12.03L268.67-12.03Q268.67-21.70 273.92-27.58L273.92-27.58L273.92-27.58Q279.55-33.92 289.34-33.92L289.34-33.92L289.34-33.92Q295.42-33.92 298.43-31.36L298.43-31.36L298.43-31.36Q300.67-29.44 300.67-26.30L300.67-26.30L300.67-26.30Q300.67-15.04 281.22-15.04L281.22-15.04L281.22-15.04Q280.96-13.38 280.96-11.97L280.96-11.97L280.96-11.97Q280.96-9.02 282.27-7.90L282.27-7.90L282.27-7.90Q283.58-6.78 286.02-6.78L286.02-6.78L286.02-6.78Q288.45-6.78 291.04-7.90L291.04-7.90L291.04-7.90Q293.63-9.02 294.72-10.82ZM281.66-17.79L281.66-17.79L281.66-17.79Q286.21-17.79 288.83-20.61L288.83-20.61L288.83-20.61Q291.46-23.30 291.46-27.58L291.46-27.58L291.46-27.58Q291.46-29.06 290.91-29.86L290.91-29.86L290.91-29.86Q290.37-30.66 289.28-30.66L289.28-30.66L289.28-30.66Q288.19-30.66 287.26-30.24L287.26-30.24L287.26-30.24Q286.34-29.82 285.38-28.42L285.38-28.42L285.38-28.42Q283.01-25.22 281.66-17.79ZM322.88-17.98L322.88-17.98L322.88-17.98Q325.18-22.08 325.18-26.24L325.18-26.24L325.18-26.24Q325.18-28.99 323.20-28.99L323.20-28.99L323.20-28.99Q321.66-28.99 320.06-26.37L320.06-26.37L320.06-26.37Q318.40-23.74 317.89-20.35L317.89-20.35L314.56 0L301.31 1.28L307.84-32.64L318.40-33.92L317.25-27.46L317.25-27.46Q320.38-33.92 327.42-33.92L327.42-33.92L327.42-33.92Q331.14-33.92 333.15-32L333.15-32L333.15-32Q335.17-30.08 335.17-26.14L335.17-26.14L335.17-26.14Q335.17-22.21 332.58-19.71L332.58-19.71L332.58-19.71Q329.98-17.22 325.57-17.22L325.57-17.22L325.57-17.22Q323.65-17.22 322.88-17.98ZM361.22 0.83L357.12 0.70L357.12 0.70Q355.14 0.64 353.06 0.64L353.06 0.64L353.06 0.64Q350.98 0.64 348.93 0.90L348.93 0.90L348.93 0.90Q348.67-0.13 348.67-1.34L348.67-1.34L348.67-1.34Q348.67-3.90 350.11-5.44L350.11-5.44L350.11-5.44Q351.55-6.98 353.79-6.98L353.79-6.98L357.25-6.98L362.62-31.17L362.62-31.17Q360.64-29.18 356.54-29.18L356.54-29.18L356.54-29.18Q354.50-29.18 352.90-31.10L352.90-31.10L352.90-31.10Q351.30-32.90 351.04-35.46L351.04-35.46L351.04-35.46Q360.51-37.12 374.66-43.46L374.66-43.46L376.70-41.02L370.50-6.98L372.10-6.98L372.10-6.98Q375.94-6.98 377.92-7.68L377.92-7.68L377.92-7.68Q378.75-6.27 378.75-3.97L378.75-3.97L378.75-3.97Q378.75-1.66 377.06-0.29L377.06-0.29L377.06-0.29Q375.36 1.09 372.54 1.09L372.54 1.09L372.54 1.09Q366.85 1.09 361.22 0.83L361.22 0.83Z" fill="url(#editing-sticker-gradient)" stroke="#585872" stroke-width="2.5"></path></g></g><style>text {
  font-size: 64px;
  font-family: Arial Black;
  dominant-baseline: central;
  text-anchor: middle;
}</style></svg>