<svg width="306.7431640625px" height="122px" xmlns="http://www.w3.org/2000/svg" viewBox="96.62841796875 14 306.7431640625 122" style="background: rgba(0, 0, 0, 0);" preserveAspectRatio="xMidYMid"><defs><linearGradient id="editing-outline-gradient" x1="-0.41354545764260087" x2="1.4135454576426008" y1="0.09326335692419985" y2="0.9067366430758002"><stop offset="0" stop-color="#ee4208"></stop><stop offset="1" stop-color="#4139ff"></stop></linearGradient><filter id="editing-outline" x="-100%" y="-100%" width="300%" height="300%"><feMorphology in="SourceGraphic" operator="dilate" radius="2" result="outline"></feMorphology><feComposite operator="out" in="outline" in2="SourceAlpha"></feComposite></filter></defs><g filter="url(#editing-outline)"><g transform="translate(146.06159734725952, 104.47000312805176)"><path d="M30.91-4.38L30.91-4.38L30.91-4.38Q28.22-1.66 24.54-0.19L24.54-0.19L24.54-0.19Q20.86 1.28 17.22 1.28L17.22 1.28L17.22 1.28Q13.57 1.28 12.29 0.64L12.29 0.64L10.30 11.52L-2.69 12.80L6.14-32.64L16.58-33.73L15.74-29.31L15.74-29.31Q18.43-33.86 24-33.86L24-33.86L24-33.86Q30.27-33.86 33.60-29.82L33.60-29.82L33.60-29.82Q36.54-26.18 36.54-20.61L36.54-20.61L36.54-20.61Q36.54-15.04 35.07-11.07L35.07-11.07L35.07-11.07Q33.60-7.10 30.91-4.38ZM16.45-22.34L13.06-3.58L13.06-3.58Q14.40-2.43 16.06-2.43L16.06-2.43L16.06-2.43Q17.73-2.43 18.69-3.07L18.69-3.07L18.69-3.07Q19.65-3.71 20.35-4.99L20.35-4.99L20.35-4.99Q22.27-8.45 23.81-18.94L23.81-18.94L23.81-18.94Q24.26-22.02 24.26-25.02L24.26-25.02L24.26-25.02Q24.26-28.03 23.58-28.99L23.58-28.99L23.58-28.99Q22.91-29.95 21.63-29.95L21.63-29.95L21.63-29.95Q17.73-29.95 16.45-22.34L16.45-22.34ZM55.68-3.52L55.68-3.52L55.68-3.52Q53.70 1.28 47.36 1.28L47.36 1.28L47.36 1.28Q44.16 1.28 42.11-0.96L42.11-0.96L42.11-0.96Q40.45-2.82 40.45-4.93L40.45-4.93L40.45-4.93Q40.45-9.73 42.69-20.22L42.69-20.22L47.36-44.80L60.35-46.08L54.14-13.70L54.14-13.70Q53.06-8.96 53.06-7.30L53.06-7.30L53.06-7.30Q53.06-3.65 55.68-3.52ZM63.90-1.92L63.90-1.92L63.90-1.92Q62.40-3.58 61.73-6.21L61.73-6.21L61.73-6.21Q61.06-8.83 61.06-13.12L61.06-13.12L61.06-13.12Q61.06-17.41 62.53-21.31L62.53-21.31L62.53-21.31Q64-25.22 66.69-28.03L66.69-28.03L66.69-28.03Q72.19-33.92 81.28-33.92L81.28-33.92L81.28-33.92Q84.54-33.92 86.91-32.83L86.91-32.83L97.86-33.92L93.12-8.96L93.12-8.96Q92.93-8.19 92.93-6.78L92.93-6.78L92.93-6.78Q92.93-5.38 93.79-4.48L93.79-4.48L93.79-4.48Q94.66-3.58 95.94-3.46L95.94-3.46L95.94-3.46Q95.30-1.28 92.96 0L92.96 0L92.96 0Q90.62 1.28 88 1.28L88 1.28L88 1.28Q85.38 1.28 83.62 0.29L83.62 0.29L83.62 0.29Q81.86-0.70 81.34-2.37L81.34-2.37L81.34-2.37Q80.32-0.77 78.14 0.26L78.14 0.26L78.14 0.26Q75.97 1.28 73.06 1.28L73.06 1.28L73.06 1.28Q70.14 1.28 67.78 0.51L67.78 0.51L67.78 0.51Q65.41-0.26 63.90-1.92ZM77.41-27.90L77.41-27.90L77.41-27.90Q76.67-26.75 76.03-24.80L76.03-24.80L76.03-24.80Q75.39-22.85 74.34-17.63L74.34-17.63L74.34-17.63Q73.28-12.42 73.28-8.70L73.28-8.70L73.28-8.70Q73.28-4.99 73.86-3.90L73.86-3.90L73.86-3.90Q74.43-2.82 75.46-2.82L75.46-2.82L75.46-2.82Q77.50-2.82 79.01-4.77L79.01-4.77L79.01-4.77Q80.51-6.72 81.09-10.18L81.09-10.18L84.48-28.93L84.48-28.93Q83.14-30.08 81.57-30.08L81.57-30.08L81.57-30.08Q80-30.08 79.07-29.57L79.07-29.57L79.07-29.57Q78.14-29.06 77.41-27.90ZM121.66-7.23L121.66-7.23L121.66-7.23Q118.34-3.78 112.26-3.78L112.26-3.78L112.26-3.78Q104.64-3.78 103.04-9.34L103.04-9.34L103.04-9.34Q102.53-11.01 102.53-12.86L102.53-12.86L102.53-12.86Q102.53-14.72 102.91-16.64L102.91-16.64L105.92-32.64L118.91-33.92L115.39-15.30L115.39-15.30Q115.26-14.46 115.07-13.57L115.07-13.57L115.07-13.57Q114.88-12.67 114.88-11.74L114.88-11.74L114.88-11.74Q114.88-10.82 115.20-10.21L115.20-10.21L115.20-10.21Q115.52-9.60 115.97-9.22L115.97-9.22L115.97-9.22Q116.74-8.70 118.11-8.70L118.11-8.70L118.11-8.70Q119.49-8.70 120.67-10.37L120.67-10.37L120.67-10.37Q121.86-12.03 122.43-14.91L122.43-14.91L125.95-32.64L138.56-33.92L133.76-8.77L133.76-8.77Q131.39 3.52 126.53 8.38L126.53 8.38L126.53 8.38Q124.03 10.88 120.80 11.87L120.80 11.87L120.80 11.87Q117.57 12.86 113.41 12.86L113.41 12.86L113.41 12.86Q106.69 12.86 102.85 10.75L102.85 10.75L102.85 10.75Q99.01 8.64 99.01 5.12L99.01 5.12L99.01 5.12Q99.01 2.50 100.99 0.99L100.99 0.99L100.99 0.99Q102.98-0.51 106.05-0.51L106.05-0.51L106.05-0.51Q108.74-0.51 110.78 0.64L110.78 0.64L110.78 0.64Q112.00 1.34 112.58 2.24L112.58 2.24L112.58 2.24Q111.10 3.52 111.10 5.63L111.10 5.63L111.10 5.63Q111.10 8.45 113.66 8.45L113.66 8.45L113.66 8.45Q117.89 8.45 120.32-1.28L120.32-1.28L120.32-1.28Q121.02-4.16 121.66-7.23ZM166.78-10.82L166.78-10.82L166.78-10.82Q168.38-9.73 168.38-7.33L168.38-7.33L168.38-7.33Q168.38-4.93 167.17-3.39L167.17-3.39L167.17-3.39Q165.95-1.86 163.97-0.83L163.97-0.83L163.97-0.83Q159.87 1.28 155.46 1.28L155.46 1.28L155.46 1.28Q151.04 1.28 148.45 0.32L148.45 0.32L148.45 0.32Q145.86-0.64 144.13-2.43L144.13-2.43L144.13-2.43Q140.74-5.82 140.74-12.03L140.74-12.03L140.74-12.03Q140.74-21.70 145.98-27.58L145.98-27.58L145.98-27.58Q151.62-33.92 161.41-33.92L161.41-33.92L161.41-33.92Q167.49-33.92 170.50-31.36L170.50-31.36L170.50-31.36Q172.74-29.44 172.74-26.30L172.74-26.30L172.74-26.30Q172.74-15.04 153.28-15.04L153.28-15.04L153.28-15.04Q153.02-13.38 153.02-11.97L153.02-11.97L153.02-11.97Q153.02-9.02 154.34-7.90L154.34-7.90L154.34-7.90Q155.65-6.78 158.08-6.78L158.08-6.78L158.08-6.78Q160.51-6.78 163.10-7.90L163.10-7.90L163.10-7.90Q165.70-9.02 166.78-10.82ZM153.73-17.79L153.73-17.79L153.73-17.79Q158.27-17.79 160.90-20.61L160.90-20.61L160.90-20.61Q163.52-23.30 163.52-27.58L163.52-27.58L163.52-27.58Q163.52-29.06 162.98-29.86L162.98-29.86L162.98-29.86Q162.43-30.66 161.34-30.66L161.34-30.66L161.34-30.66Q160.26-30.66 159.33-30.24L159.33-30.24L159.33-30.24Q158.40-29.82 157.44-28.42L157.44-28.42L157.44-28.42Q155.07-25.22 153.73-17.79ZM194.94-17.98L194.94-17.98L194.94-17.98Q197.25-22.08 197.25-26.24L197.25-26.24L197.25-26.24Q197.25-28.99 195.26-28.99L195.26-28.99L195.26-28.99Q193.73-28.99 192.13-26.37L192.13-26.37L192.13-26.37Q190.46-23.74 189.95-20.35L189.95-20.35L186.62 0L173.38 1.28L179.90-32.64L190.46-33.92L189.31-27.46L189.31-27.46Q192.45-33.92 199.49-33.92L199.49-33.92L199.49-33.92Q203.20-33.92 205.22-32L205.22-32L205.22-32Q207.23-30.08 207.23-26.14L207.23-26.14L207.23-26.14Q207.23-22.21 204.64-19.71L204.64-19.71L204.64-19.71Q202.05-17.22 197.63-17.22L197.63-17.22L197.63-17.22Q195.71-17.22 194.94-17.98Z" fill="url(#editing-outline-gradient)"></path></g></g><style>text {
  font-size: 64px;
  font-family: Arial Black;
  dominant-baseline: central;
  text-anchor: middle;
}</style></svg>