<svg width="543.973583984375px" height="122px" xmlns="http://www.w3.org/2000/svg" viewBox="-21.986791992187477 14 543.973583984375 122" style="background: rgb(254, 254, 254);" preserveAspectRatio="xMidYMid"><defs><linearGradient id="editing-sticker-gradient" x1="0.5" y1="0.2" x2="0.5" y2="0.8"><stop offset="0" stop-color="#cec9c9"></stop><stop offset="1" stop-color="#eae042"></stop></linearGradient><filter id="editing-sticker" x="-100%" y="-100%" width="300%" height="300%"><feMorphology operator="erode" radius="1" in="SourceAlpha" result="alpha-erode"></feMorphology><feConvolveMatrix order="3,3" divisor="1" kernelMatrix="0 1 0 1 1 1 0 1 0" in="alpha-erode" result="alpha-round"></feConvolveMatrix><feMorphology operator="dilate" radius="3.5" in="alpha-round" result="dilate-shadow"></feMorphology><feGaussianBlur in="dilate-shadow" stdDeviation="1.5" result="shadow"></feGaussianBlur><feFlood flood-color="#fff" result="flood-sticker"></feFlood><feComposite operator="in" in="flood-sticker" in2="alpha-round" result="comp-sticker"></feComposite><feMorphology operator="dilate" radius="3" in="comp-sticker" result="morph-sticker"></feMorphology><feConvolveMatrix order="3,3" divisor="1" kernelMatrix="0 1 0 1 1 1 0 1 0" in="morph-sticker" result="sticker"></feConvolveMatrix><feMerge><feMergeNode in="shadow"></feMergeNode><feMergeNode in="sticker"></feMergeNode><feMergeNode in="SourceGraphic"></feMergeNode></feMerge></filter></defs><g filter="url(#editing-sticker)"><g transform="translate(57.81729230284691, 98.71000289916992)"><path d="M24.96-4.80L24.96-4.80L24.96-4.80Q24.96-9.28 26.75-18.24L26.75-18.24L17.28-18.24L13.76 0L0.38 0L8.51-42.24L22.02-42.24L18.30-23.36L27.78-23.36L31.30-42.24L44.80-42.24L44.80-42.24Q43.90-37.50 42.75-32.19L42.75-32.19L40.58-21.76L40.58-21.76Q38.14-9.60 38.14-4.29L38.14-4.29L38.14-4.29Q38.14-2.11 38.85-0.90L38.85-0.90L38.85-0.90Q35.65 1.28 31.90 1.28L31.90 1.28L31.90 1.28Q28.16 1.28 26.56-0.51L26.56-0.51L26.56-0.51Q24.96-2.30 24.96-4.80ZM72.26-10.82L72.26-10.82L72.26-10.82Q73.86-9.73 73.86-7.33L73.86-7.33L73.86-7.33Q73.86-4.93 72.64-3.39L72.64-3.39L72.64-3.39Q71.42-1.86 69.44-0.83L69.44-0.83L69.44-0.83Q65.34 1.28 60.93 1.28L60.93 1.28L60.93 1.28Q56.51 1.28 53.92 0.32L53.92 0.32L53.92 0.32Q51.33-0.64 49.60-2.43L49.60-2.43L49.60-2.43Q46.21-5.82 46.21-12.03L46.21-12.03L46.21-12.03Q46.21-21.70 51.46-27.58L51.46-27.58L51.46-27.58Q57.09-33.92 66.88-33.92L66.88-33.92L66.88-33.92Q72.96-33.92 75.97-31.36L75.97-31.36L75.97-31.36Q78.21-29.44 78.21-26.30L78.21-26.30L78.21-26.30Q78.21-15.04 58.75-15.04L58.75-15.04L58.75-15.04Q58.50-13.38 58.50-11.97L58.50-11.97L58.50-11.97Q58.50-9.02 59.81-7.90L59.81-7.90L59.81-7.90Q61.12-6.78 63.55-6.78L63.55-6.78L63.55-6.78Q65.98-6.78 68.58-7.90L68.58-7.90L68.58-7.90Q71.17-9.02 72.26-10.82ZM59.20-17.79L59.20-17.79L59.20-17.79Q63.74-17.79 66.37-20.61L66.37-20.61L66.37-20.61Q68.99-23.30 68.99-27.58L68.99-27.58L68.99-27.58Q68.99-29.06 68.45-29.86L68.45-29.86L68.45-29.86Q67.90-30.66 66.82-30.66L66.82-30.66L66.82-30.66Q65.73-30.66 64.80-30.24L64.80-30.24L64.80-30.24Q63.87-29.82 62.91-28.42L62.91-28.42L62.91-28.42Q60.54-25.22 59.20-17.79ZM95.68-3.52L95.68-3.52L95.68-3.52Q93.70 1.28 87.36 1.28L87.36 1.28L87.36 1.28Q84.16 1.28 82.11-0.96L82.11-0.96L82.11-0.96Q80.45-2.82 80.45-4.93L80.45-4.93L80.45-4.93Q80.45-9.73 82.69-20.22L82.69-20.22L87.36-44.80L100.35-46.08L94.14-13.70L94.14-13.70Q93.06-8.96 93.06-7.30L93.06-7.30L93.06-7.30Q93.06-3.65 95.68-3.52ZM116.42-3.52L116.42-3.52L116.42-3.52Q114.43 1.28 108.10 1.28L108.10 1.28L108.10 1.28Q104.90 1.28 102.85-0.96L102.85-0.96L102.85-0.96Q101.18-2.82 101.18-4.93L101.18-4.93L101.18-4.93Q101.18-9.73 103.42-20.22L103.42-20.22L108.10-44.80L121.09-46.08L114.88-13.70L114.88-13.70Q113.79-8.96 113.79-7.30L113.79-7.30L113.79-7.30Q113.79-3.65 116.42-3.52ZM135.81 1.28L135.81 1.28L135.81 1.28Q121.73 1.28 121.73-11.97L121.73-11.97L121.73-11.97Q121.73-21.38 126.91-27.46L126.91-27.46L126.91-27.46Q132.42-33.92 141.95-33.92L141.95-33.92L141.95-33.92Q148.86-33.92 152.38-30.72L152.38-30.72L152.38-30.72Q155.90-27.52 155.90-20.80L155.90-20.80L155.90-20.80Q155.90-10.56 150.40-4.61L150.40-4.61L150.40-4.61Q145.02 1.28 135.81 1.28ZM137.47-26.56L137.47-26.56L137.47-26.56Q136.70-24.83 136.10-22.24L136.10-22.24L136.10-22.24Q135.49-19.65 134.72-15.55L134.72-15.55L134.72-15.55Q133.95-11.46 133.95-6.40L133.95-6.40L133.95-6.40Q133.95-4.74 134.50-3.65L134.50-3.65L134.50-3.65Q135.04-2.56 136.51-2.56L136.51-2.56L136.51-2.56Q137.98-2.56 138.91-3.26L138.91-3.26L138.91-3.26Q139.84-3.97 140.54-5.63L140.54-5.63L140.54-5.63Q141.82-8.58 142.85-14.05L142.85-14.05L142.85-14.05Q143.87-19.52 143.97-21.89L143.97-21.89L143.97-21.89Q144.06-24.26 144.06-26.02L144.06-26.02L144.06-26.02Q144.06-27.78 143.55-28.93L143.55-28.93L143.55-28.93Q143.04-30.08 141.60-30.08L141.60-30.08L141.60-30.08Q140.16-30.08 139.20-29.18L139.20-29.18L139.20-29.18Q138.24-28.29 137.47-26.56ZM174.46-39.68L174.46-39.68L174.46-39.68Q175.36-41.47 177.31-42.46L177.31-42.46L177.31-42.46Q179.26-43.46 181.95-43.46L181.95-43.46L181.95-43.46Q186.18-43.46 188.70-40.42L188.70-40.42L188.70-40.42Q191.23-37.38 191.23-30.72L191.23-30.72L191.23-7.87L205.89-42.18L213.44-42.18L215.17-9.79L214.98-7.94L230.21-42.18L238.98-42.18L218.50 0L204.86 0L203.58-19.46L195.14 0L179.71 0L177.79-30.72L177.79-30.72Q177.60-34.18 176.67-36.45L176.67-36.45L176.67-36.45Q175.74-38.72 174.46-39.68ZM249.09 1.28L249.09 1.28L249.09 1.28Q235.01 1.28 235.01-11.97L235.01-11.97L235.01-11.97Q235.01-21.38 240.19-27.46L240.19-27.46L240.19-27.46Q245.70-33.92 255.23-33.92L255.23-33.92L255.23-33.92Q262.14-33.92 265.66-30.72L265.66-30.72L265.66-30.72Q269.18-27.52 269.18-20.80L269.18-20.80L269.18-20.80Q269.18-10.56 263.68-4.61L263.68-4.61L263.68-4.61Q258.30 1.28 249.09 1.28ZM250.75-26.56L250.75-26.56L250.75-26.56Q249.98-24.83 249.38-22.24L249.38-22.24L249.38-22.24Q248.77-19.65 248.00-15.55L248.00-15.55L248.00-15.55Q247.23-11.46 247.23-6.40L247.23-6.40L247.23-6.40Q247.23-4.74 247.78-3.65L247.78-3.65L247.78-3.65Q248.32-2.56 249.79-2.56L249.79-2.56L249.79-2.56Q251.26-2.56 252.19-3.26L252.19-3.26L252.19-3.26Q253.12-3.97 253.82-5.63L253.82-5.63L253.82-5.63Q255.10-8.58 256.13-14.05L256.13-14.05L256.13-14.05Q257.15-19.52 257.25-21.89L257.25-21.89L257.25-21.89Q257.34-24.26 257.34-26.02L257.34-26.02L257.34-26.02Q257.34-27.78 256.83-28.93L256.83-28.93L256.83-28.93Q256.32-30.08 254.88-30.08L254.88-30.08L254.88-30.08Q253.44-30.08 252.48-29.18L252.48-29.18L252.48-29.18Q251.52-28.29 250.75-26.56ZM292.99-17.98L292.99-17.98L292.99-17.98Q295.30-22.08 295.30-26.24L295.30-26.24L295.30-26.24Q295.30-28.99 293.31-28.99L293.31-28.99L293.31-28.99Q291.78-28.99 290.18-26.37L290.18-26.37L290.18-26.37Q288.51-23.74 288.00-20.35L288.00-20.35L284.67 0L271.42 1.28L277.95-32.64L288.51-33.92L287.36-27.46L287.36-27.46Q290.50-33.92 297.54-33.92L297.54-33.92L297.54-33.92Q301.25-33.92 303.26-32L303.26-32L303.26-32Q305.28-30.08 305.28-26.14L305.28-26.14L305.28-26.14Q305.28-22.21 302.69-19.71L302.69-19.71L302.69-19.71Q300.10-17.22 295.68-17.22L295.68-17.22L295.68-17.22Q293.76-17.22 292.99-17.98ZM321.60-3.52L321.60-3.52L321.60-3.52Q319.62 1.28 313.28 1.28L313.28 1.28L313.28 1.28Q310.08 1.28 308.03-0.96L308.03-0.96L308.03-0.96Q306.37-2.82 306.37-4.93L306.37-4.93L306.37-4.93Q306.37-9.73 308.61-20.22L308.61-20.22L313.28-44.80L326.27-46.08L320.06-13.70L320.06-13.70Q318.98-8.96 318.98-7.30L318.98-7.30L318.98-7.30Q318.98-3.65 321.60-3.52ZM347.20-33.92L347.20-33.92L347.20-33.92Q349.50-33.92 351.30-33.41L351.30-33.41L351.30-33.41Q351.36-33.66 351.49-34.37L351.49-34.37L351.81-36.35L351.81-36.35Q352.06-37.63 352.45-39.74L352.45-39.74L353.47-44.80L366.21-46.08L359.10-8.96L359.10-8.96Q359.04-8.58 359.04-7.94L359.04-7.94L359.04-6.91L359.04-6.91Q359.04-5.50 359.74-4.45L359.74-4.45L359.74-4.45Q360.45-3.39 361.60-3.39L361.60-3.39L361.60-3.39Q360.32-0.38 356.42 0.90L356.42 0.90L356.42 0.90Q355.07 1.28 353.18 1.28L353.18 1.28L353.18 1.28Q351.30 1.28 349.57 0.29L349.57 0.29L349.57 0.29Q347.84-0.70 347.33-2.37L347.33-2.37L347.33-2.37Q346.30-0.70 344.26 0.29L344.26 0.29L344.26 0.29Q342.21 1.28 339.23 1.28L339.23 1.28L339.23 1.28Q336.26 1.28 333.79 0.51L333.79 0.51L333.79 0.51Q331.33-0.26 329.79-1.92L329.79-1.92L329.79-1.92Q326.98-5.18 326.98-12.61L326.98-12.61L326.98-12.61Q326.98-22.21 332.61-28.03L332.61-28.03L332.61-28.03Q338.24-33.92 347.20-33.92ZM346.75-30.08L346.75-30.08L346.75-30.08Q344.38-30.08 343.10-27.52L343.10-27.52L343.10-27.52Q341.82-24.96 340.51-18.62L340.51-18.62L340.51-18.62Q339.20-12.29 339.20-6.59L339.20-6.59L339.20-6.59Q339.20-2.69 341.50-2.69L341.50-2.69L341.50-2.69Q343.55-2.69 344.99-4.74L344.99-4.74L344.99-4.74Q346.43-6.78 347.01-10.18L347.01-10.18L350.46-28.93L350.46-28.93Q349.12-30.08 346.75-30.08ZM365.31-3.78L365.31-3.78L365.31-3.78Q365.31-6.21 367.14-7.52L367.14-7.52L367.14-7.52Q368.96-8.83 371.65-8.83L371.65-8.83L371.65-8.83Q374.34-8.83 376.03-7.52L376.03-7.52L376.03-7.52Q377.73-6.21 377.73-3.78L377.73-3.78L377.73-3.78Q377.73-1.34 375.84 0L375.84 0L375.84 0Q373.95 1.34 371.26 1.34L371.26 1.34L371.26 1.34Q368.58 1.34 366.94 0L366.94 0L366.94 0Q365.31-1.34 365.31-3.78ZM368.77-15.81L368.77-15.81L368.77-15.81Q368.77-16.26 368.90-16.90L368.90-16.90L373.89-42.62L373.89-42.62Q376.26-43.52 379.07-43.52L379.07-43.52L379.07-43.52Q381.89-43.52 383.36-41.73L383.36-41.73L383.36-41.73Q384.83-39.94 384.83-37.28L384.83-37.28L384.83-37.28Q384.83-34.62 383.81-31.65L383.81-31.65L383.81-31.65Q382.78-28.67 381.54-25.66L381.54-25.66L381.54-25.66Q380.29-22.66 379.23-19.55L379.23-19.55L379.23-19.55Q378.18-16.45 378.11-13.18L378.11-13.18L378.11-13.18Q376.64-11.52 374.08-11.52L374.08-11.52L374.08-11.52Q371.52-11.52 370.14-12.70L370.14-12.70L370.14-12.70Q368.77-13.89 368.77-15.81Z" fill="url(#editing-sticker-gradient)" stroke="rgba(39.06330532212884%,73.33333333333333%,9.019607843137257%,0.521)" stroke-width="2.5"></path></g></g><style>text {
  font-size: 64px;
  font-family: Arial Black;
  dominant-baseline: central;
  text-anchor: middle;
}</style></svg>